HIERARCHY
ROOT pelvis
{
  OFFSET 0 100 0
  CHANNELS 6 Xposition Yposition Zposition Zrotation Xrotation Yrotation
  JOINT pelvis_right_femur
  {
    OFFSET -10.78128 -3.44521 -0.5502486
    CHANNELS 3 Zrotation Xrotation Yrotation
    JOINT right_femur_tibia
    {
      OFFSET -0.8047443 -44.0398 -0.1307829
      CHANNELS 3 Zrotation Xrotation Yrotation
      JOINT right_tibia_foot
      {
        OFFSET 3.006224 -47.83518 -5
        CHANNELS 3 Zrotation Xrotation Yrotation
        End Site
        {
          OFFSET 0 -5 15
        }
      }
    }
  }
  JOINT pelvis_left_femur
  {
    OFFSET 10.78128 -3.44521 -0.5502486
    CHANNELS 3 Zrotation Xrotation Yrotation
    JOINT left_femur_tibia
    {
      OFFSET 0.8047443 -44.0398 -0.1307829
      CHANNELS 3 Zrotation Xrotation Yrotation
      JOINT left_tibia_foot
      {
        OFFSET -4.370144 -48.10324 -4.275266
        CHANNELS 3 Zrotation Xrotation Yrotation
        End Site
        {
          OFFSET 0 -5 15
        }
      }
    }
  }
  JOINT pelvis_spine1
  {
    OFFSET 0 6.468898 -3.129235
    CHANNELS 3 Zrotation Xrotation Yrotation
    JOINT spine1
    {
      OFFSET 0 23.15396 4.99043
      CHANNELS 3 Zrotation Xrotation Yrotation
      JOINT spine2
      {
        OFFSET 0 20.79997 -5.064912
        CHANNELS 3 Zrotation Xrotation Yrotation
        JOINT neck
        {
          OFFSET 0 14.38658 9.616178
          CHANNELS 3 Zrotation Xrotation Yrotation
          End Site
          {
            OFFSET 0 20 0
          }
        }
      }
      JOINT right_manubrium
      {
        OFFSET -5.722621 16.35077 3.967754
        CHANNELS 3 Zrotation Xrotation Yrotation
        JOINT right_clavicle
        {
          OFFSET -13.16364 1.694482 -4.693211
          CHANNELS 3 Zrotation Xrotation Yrotation
          JOINT right_humerus
          {
            OFFSET -28.5034 -0.3100689 -2.792744
            CHANNELS 3 Zrotation Xrotation Yrotation
            JOINT right_radius
            {
              OFFSET -25.15693 0.02248979 -1.271978
              CHANNELS 3 Zrotation Xrotation Yrotation
              End Site
              {
                OFFSET -15 0 0
              }
            }
          }
        }
      }
      JOINT left_manubrium
      {
        OFFSET 5.722621 16.35077 3.967754
        CHANNELS 3 Zrotation Xrotation Yrotation
        JOINT left_clavicle
        {
          OFFSET 13.16364 1.694482 -4.693211
          CHANNELS 3 Zrotation Xrotation Yrotation
          JOINT left_humerus
          {
            OFFSET 29.39168 -1.063119 -2.237045
            CHANNELS 3 Zrotation Xrotation Yrotation
            JOINT left_radius
            {
              OFFSET 24.59957 -0.9528479 0.9047498
              CHANNELS 3 Zrotation Xrotation Yrotation
              End Site
              {
                OFFSET 15 -0 -0
              }
            }
          }
        }
      }
    }
  }
}
MOTION
Frames: 18
Frame Time: 0.0416666666667
0 103.5113 0 0.8018963 -1.318949 0.1151671 3.775254 -15.34633 8.646588 -2.741644e-09 36.51106 3.162366e-09 -6.245483 -17.99732 -3.043527 -6.987691 5.52889 -22.55843 3.997787e-09 6.009566 -7.210931e-10 7.21808 -18.29734 26.39999 -3.668328 -2.298501 4.747017 2.238813 8.782548 -7.044514 1.298558 22.80828 6.818305 2.965331 -23.85896 9.297052 5.949681 -20.03467 11.66032 83.98556 35.38458 -16.62022 -5.323255e-10 -2.409007e-09 17.67399 -6.996614 7.690624 4.767258 5.559091 -18.93284 -1.330117 -96.03494 29.95849 24.64251 -2.9452e-10 2.379817e-10 -14.5993 3.218129 17.84835 9.861467
0.3549698 103.4787 0.9870608 0.7177816 -1.22224 0.3320878 3.804119 -17.02442 8.756306 -2.736681e-09 38.99252 2.84707e-09 -6.04796 -16.99965 -3.398313 -6.953765 7.507587 -22.63299 4.583956e-09 5.765965 1.253082e-10 7.10739 -18.56788 25.81902 -3.663097 -2.426272 4.47925 2.320733 8.883195 -7.35743 1.245192 22.66655 6.913461 2.92924 -23.95503 9.393022 6.161173 -19.84822 11.66839 84.7723 35.49874 -17.51285 -3.931521e-10 -2.250534e-09 17.42105 -6.901232 8.074281 4.668062 5.434881 -19.10415 -1.440474 -95.75937 29.98505 24.38121 -1.935223e-10 2.765815e-10 -14.93377 3.123011 17.64551 10.10482
0.7048212 103.5293 2.157802 0.5868903 -0.9111457 0.6275267 3.962104 -18.89578 8.68512 -2.440427e-09 39.52748 2.32883e-09 -5.931145 -15.8389 -3.557278 -6.838519 9.325164 -22.5377 4.859426e-09 5.551092 1.307591e-10 6.884548 -18.93844 25.14622 -3.593087 -2.550933 4.224912 2.443661 8.944232 -7.663921 1.188694 22.46499 7.032568 2.95752 -24.13661 9.456936 6.276594 -19.63874 11.66453 85.47175 35.55522 -18.4349 -2.590191e-10 -2.065118e-09 17.01624 -6.942852 8.404247 4.63649 5.46649 -19.38447 -1.508807 -95.37315 29.84369 23.94848 -7.635714e-11 3.087116e-10 -15.5236 3.188473 17.44954 10.12132
1.038836 103.5827 3.605409 0.409951 -0.3585398 0.9578095 4.251898 -20.9651 8.46291 -1.815485e-09 38.0631 1.611522e-09 -5.840924 -14.37508 -3.482005 -6.674645 10.9706 -22.29068 4.83398e-09 5.472218 -8.937208e-10 6.50899 -19.4489 24.42528 -3.462728 -2.669008 3.9993 2.60639 8.963028 -7.951794 1.136542 22.20805 7.201497 3.078213 -24.43883 9.510262 6.316078 -19.39092 11.65586 86.10683 35.57899 -19.40626 -1.056532e-10 -1.834157e-09 16.44389 -7.174683 8.669905 4.689832 5.680266 -19.75908 -1.513138 -94.97219 29.5342 23.37854 6.735555e-11 3.178337e-10 -16.36252 3.38012 17.23756 9.95051
1.345173 103.5393 5.356139 0.2382471 0.3458821 1.269558 4.62556 -23.05845 8.131985 -1.040103e-09 34.64307 8.857599e-10 -5.743228 -12.7465 -3.165719 -6.52416 12.27926 -21.93555 4.466541e-09 5.547261 -2.961859e-09 6.099551 -20.09709 23.82817 -3.309952 -2.761698 3.84573 2.783286 8.952307 -8.180177 1.097012 21.91291 7.407004 3.291723 -24.80466 9.541028 6.269417 -19.11678 11.64232 86.50605 35.54518 -20.31977 3.998939e-11 -1.599452e-09 15.72613 -7.580885 8.799664 4.789011 6.078033 -20.19799 -1.469004 -94.47795 29.09658 22.62618 2.355601e-10 2.901801e-10 -17.44798 3.691463 17.02864 9.571622
1.61831 103.3454 7.447603 0.04450461 1.166747 1.530517 5.050854 -25.07293 7.733309 -2.10212e-10 30.03757 2.232717e-10 -5.674294 -11.00606 -2.698944 -6.362891 13.31561 -21.48339 3.928341e-09 5.809526 -5.609652e-09 5.583858 -20.76421 23.22782 -3.1247 -2.834819 3.72936 2.969292 8.90074 -8.360563 1.067318 21.58632 7.628159 3.555823 -25.20926 9.556611 6.173914 -18.80901 11.61633 86.71238 35.50058 -21.13979 1.941413e-10 -1.349668e-09 14.92087 -8.083793 8.853058 4.932707 6.571081 -20.63691 -1.36881 -93.94151 28.57885 21.80847 4.07112e-10 2.392116e-10 -18.59386 4.050475 16.80082 9.096638
1.854193 102.9752 9.956237 -0.2099747 2.037635 1.730835 5.502573 -26.90399 7.263821 6.195639e-10 24.8383 -3.640653e-10 -5.687211 -9.332169 -2.218433 -6.120794 14.13721 -20.87673 3.324494e-09 6.344659 -8.300153e-09 4.805752 -21.31462 22.42112 -2.87916 -2.875789 3.601521 3.159345 8.781005 -8.512385 1.050838 21.27008 7.825253 3.803894 -25.59001 9.560569 6.033453 -18.45058 11.5657 86.90165 35.44319 -21.86214 3.506707e-10 -1.08094e-09 14.08653 -8.644285 8.936207 5.140491 7.077436 -21.03887 -1.207733 -93.43784 28.01379 20.96852 5.269683e-10 1.953938e-10 -19.65667 4.395955 16.53282 8.623214
2.056276 102.4851 12.94308 -0.5346397 2.818584 1.896206 5.922052 -28.36102 6.806715 1.3511e-09 20.53233 -8.463232e-10 -5.818981 -7.887568 -1.897084 -5.791048 14.85892 -20.1721 2.950119e-09 7.381343 -1.011225e-08 3.733245 -21.52781 21.28291 -2.578918 -2.888658 3.418753 3.3353 8.60783 -8.657065 1.040602 21.00912 7.957494 3.962205 -25.88081 9.55536 5.914991 -18.0359 11.49276 87.19753 35.42773 -22.4739 5.150959e-10 -8.004964e-10 13.30124 -9.116912 9.132627 5.373622 7.433706 -21.32728 -1.013163 -93.0232 27.51284 20.24619 5.643266e-10 1.799737e-10 -20.37805 4.633874 16.22419 8.309437
2.231992 101.9914 16.44703 -0.9395845 3.423152 2.064671 6.289031 -29.23638 6.382412 1.925373e-09 17.87063 -1.221599e-09 -6.14984 -6.809104 -1.803646 -5.359437 15.43944 -19.3732 2.97091e-09 9.169623 -1.043582e-08 2.403515 -21.17507 19.73133 -2.21436 -2.884386 3.166179 3.486814 8.406703 -8.800689 1.022022 20.80316 7.983563 3.983115 -26.03332 9.507603 5.842832 -17.57781 11.39963 87.54372 35.47627 -22.90912 6.82159e-10 -5.196943e-10 12.59934 -9.37879 9.470194 5.594425 7.521874 -21.46602 -0.8187017 -92.61725 27.11108 19.73146 5.141981e-10 2.048613e-10 -20.58897 4.756379 15.89215 8.18775
2.402288 101.6838 20.50525 -1.415043 3.782059 2.280902 6.576715 -29.2546 6.014756 2.337279e-09 17.6371 -1.490123e-09 -6.702345 -5.962961 -1.935449 -4.865338 15.73639 -18.47645 3.504079e-09 12.17579 -8.851144e-09 0.8805061 -20.04259 17.77904 -1.790254 -2.876227 2.8656 3.593798 8.237323 -8.932876 0.9783423 20.65182 7.904311 3.869693 -26.04964 9.39659 5.86934 -17.09281 11.31331 87.90232 35.63681 -23.12834 8.781428e-10 -2.183039e-10 11.99026 -9.430804 9.96619 5.806415 7.249383 -21.42701 -0.6519454 -92.22795 26.80654 19.56706 4.131663e-10 2.491773e-10 -20.12697 4.747195 15.52078 8.307002
2.58408 101.7013 25.1499 -1.93117 3.877461 2.533927 6.895877 -28.24583 5.746585 2.62844e-09 18.68489 -1.62334e-09 -7.402182 -5.490764 -2.213828 -4.297168 15.38935 -17.41389 4.342001e-09 16.81915 -6.040527e-09 -0.7792797 -18.14542 15.6753 -1.284096 -2.846495 2.626003 3.657056 8.141219 -9.017306 0.9306714 20.57451 7.722888 3.662922 -25.95052 9.217115 5.940574 -16.65351 11.27179 88.2991 35.8048 -23.14702 1.09065e-09 8.644314e-11 11.53687 -9.395571 10.59947 6.010515 6.713048 -21.272 -0.508607 -92.05466 26.52363 19.80967 2.679636e-10 2.905058e-10 -19.15101 4.613109 15.11823 8.624839
2.75866 102.1284 30.2223 -2.339387 3.572028 2.740063 7.281654 -26.2983 5.615538 2.540512e-09 19.9132 -1.36757e-09 -8.200458 -5.766813 -2.597284 -3.746787 14.19639 -16.22023 4.992292e-09 23.48942 -2.362561e-09 -2.164746 -15.65106 13.86526 -0.7679403 -2.76092 2.565099 3.668548 8.204563 -9.034911 0.8770343 20.59355 7.425567 3.404135 -25.65923 8.908174 6.001103 -16.27503 11.31052 88.48468 35.91097 -23.03757 1.206936e-09 2.726493e-10 11.10881 -9.219595 11.19567 6.019765 6.016155 -21.15119 -0.4713647 -91.75543 26.27468 20.08307 1.088776e-10 2.931701e-10 -18.15695 4.507631 14.77703 8.884595
2.913238 102.9714 35.57556 -2.533069 2.902107 2.808055 7.597667 -23.05761 5.503997 2.0989e-09 20.5936 -6.765533e-10 -8.88347 -6.717774 -2.92367 -3.26312 11.51681 -14.81842 4.749729e-09 31.67223 1.695879e-09 -3.26938 -12.86201 12.6647 -0.3307446 -2.563285 2.807931 3.582931 8.42324 -8.907652 0.8235447 20.80253 7.101664 3.188071 -25.22299 8.510471 6.033714 -16.04938 11.47909 88.54085 36.00438 -22.68997 1.186495e-09 3.539756e-10 10.84924 -9.35581 11.72855 6.053338 5.324338 -21.09291 -0.4839833 -91.68025 26.00415 20.40149 -2.724302e-11 2.245867e-10 -17.31106 4.398578 14.44567 9.106591
3.029293 104.1303 40.94387 -2.372376 1.908512 2.666112 7.650833 -18.68215 5.318339 1.243123e-09 20.41811 4.553866e-10 -9.260731 -8.212779 -3.027865 -2.949794 7.253042 -13.35915 3.024531e-09 39.78966 5.866284e-09 -3.795257 -10.33477 12.42593 -0.1318771 -2.247745 3.402742 3.360343 8.797064 -8.59228 0.7586273 21.18794 6.828797 3.092156 -24.64867 8.042641 6.007781 -16.05786 11.77365 88.1821 36.09124 -21.95958 9.633437e-10 2.927264e-10 10.82175 -10.01427 12.03868 6.196653 4.795909 -21.13063 -0.5696324 -91.647 25.69885 20.55769 -6.584929e-11 7.083741e-11 -16.88004 4.366489 14.15361 9.146893
3.088936 105.4234 46.09858 -1.919227 0.8164586 2.320089 7.387644 -13.93852 4.986831 1.811201e-10 19.28789 1.737019e-09 -9.284851 -9.937374 -2.862903 -2.767601 2.141591 -12.00758 -9.134899e-11 45.86398 9.775395e-09 -3.779156 -8.533531 12.97457 -0.2052272 -1.861826 4.192047 3.028752 9.192077 -8.131901 0.6856149 21.64396 6.644633 3.110879 -23.98019 7.565453 5.883542 -16.25768 12.09522 87.29951 36.13317 -20.81732 5.598054e-10 1.176701e-10 11.00987 -11.14955 12.08301 6.508624 4.529767 -21.22232 -0.6932851 -91.42282 25.36185 20.37686 -1.791151e-11 -1.186342e-10 -16.89938 4.443221 13.90632 8.948357
3.123065 106.6841 51.01677 -1.342113 -0.09367034 1.827509 6.846338 -8.915683 4.493307 -7.561938e-10 17.84435 2.845857e-09 -8.99235 -11.34415 -2.334886 -2.610699 -3.58248 -10.76235 -3.75361e-09 49.12189 1.29255e-08 -3.517657 -7.389284 13.94369 -0.4783037 -1.48191 5.06988 2.622415 9.52565 -7.563137 0.5893062 22.08876 6.60486 3.246609 -23.40666 7.146295 5.727795 -16.68299 12.41842 86.09609 36.23794 -19.22287 1.142931e-10 -2.8459e-11 11.55957 -12.83477 11.99404 7.203177 4.482687 -21.25756 -0.7484081 -91.3988 24.93412 20.33011 1.364321e-10 -3.155193e-10 -16.951 4.517575 13.62024 8.728215
3.169442 107.7078 55.77288 -0.7787208 -0.7875123 1.235642 6.177983 -4.205379 3.936653 -1.423726e-09 15.93685 3.510933e-09 -8.384797 -12.60041 -1.676582 -2.331071 -9.111834 -9.593022 -6.644225e-09 49.09159 1.418266e-08 -3.22076 -6.903613 15.01497 -0.8298463 -1.148649 5.891624 2.198396 9.717853 -6.974107 0.5102737 22.4283 6.625824 3.38015 -22.85701 6.820657 5.467379 -17.29211 12.65798 84.75891 36.14939 -17.31164 -3.271692e-10 -1.334753e-10 12.54366 -14.82141 11.91629 8.18727 4.623244 -21.19762 -0.7403109 -91.50752 24.40337 20.40052 2.998859e-10 -4.427053e-10 -16.96354 4.495237 13.26844 8.581934
3.285079 108.27 60.40385 -0.2711464 -1.209285 0.6181029 5.342381 -0.09909357 3.344765 -1.917341e-09 13.93008 3.634722e-09 -7.524531 -14.07073 -0.9973428 -1.923639 -14.05515 -8.601034 -8.077332e-09 44.55002 1.302704e-08 -2.748273 -7.159984 16.08345 -1.256452 -0.9074345 6.562089 1.789973 9.698144 -6.423256 0.4391788 22.59836 6.655604 3.423243 -22.29622 6.596512 5.086425 -18.13592 12.7529 83.20031 35.85472 -15.01693 -7.940525e-10 -2.416211e-10 14.11835 -16.82616 11.86647 9.397762 4.895463 -20.99099 -0.6717062 -91.59904 23.85959 20.64499 4.306228e-10 -4.316467e-10 -16.85263 4.357204 12.90804 8.540824
